HIERARCHY
ROOT hip
{
  OFFSET 0 0 0
  CHANNELS 6 Xposition Yposition Zposition Zrotation Yrotation Xrotation
  JOINT abdomen
  {
    OFFSET 0 20.6881 -0.73152
    CHANNELS 3 Zrotation Xrotation Yrotation
    JOINT chest
    {
      OFFSET 0 11.7043 -0.48768
      CHANNELS 3 Zrotation Xrotation Yrotation
      JOINT neck
      {
        OFFSET 0 22.1894 -2.19456
        CHANNELS 3 Zrotation Xrotation Yrotation
        JOINT head
        {
          OFFSET -0.24384 7.07133 1.2192
          CHANNELS 3 Zrotation Xrotation Yrotation
          JOINT leftEye
          {
            OFFSET 4.14528 8.04674 8.04672
            CHANNELS 3 Zrotation Xrotation Yrotation
            End Site
            {
              OFFSET 1 0 0
            }
          }
          JOINT rightEye
          {
            OFFSET -3.6576 8.04674 8.04672
            CHANNELS 3 Zrotation Xrotation Yrotation
            End Site
            {
              OFFSET 1 0 0
            }
          }
        }
      }
      JOINT rCollar
      {
        OFFSET -2.68224 19.2634 -4.8768
        CHANNELS 3 Zrotation Xrotation Yrotation
        JOINT rShldr
        {
          OFFSET -8.77824 -1.95073 1.46304
          CHANNELS 3 Zrotation Xrotation Yrotation
          JOINT rForeArm
          {
            OFFSET -28.1742 -1.7115 0.48768
            CHANNELS 3 Zrotation Xrotation Yrotation
            JOINT rHand
            {
              OFFSET -22.5879 0.773209 7.07136
              CHANNELS 3 Zrotation Xrotation Yrotation
              JOINT rThumb1
              {
                OFFSET -1.2192 -0.487915 3.41376
                CHANNELS 3 Zrotation Xrotation Yrotation
                JOINT rThumb2
                {
                  OFFSET -3.37035 -0.52449 3.41376
                  CHANNELS 3 Zrotation Xrotation Yrotation
                  End Site
                  {
                    OFFSET -1.78271 -1.18214 1.43049
                  }
                }
              }
              JOINT rIndex1
              {
                OFFSET -7.75947 0.938293 5.60832
                CHANNELS 3 Zrotation Xrotation Yrotation
                JOINT rIndex2
                {
                  OFFSET -2.54057 -0.884171 1.56538
                  CHANNELS 3 Zrotation Xrotation Yrotation
                  End Site
                  {
                    OFFSET -1.62519 -0.234802 1.16502
                  }
                }
              }
              JOINT rMid1
              {
                OFFSET -8.24714 1.18213 3.41376
                CHANNELS 3 Zrotation Xrotation Yrotation
                JOINT rMid2
                {
                  OFFSET -3.10165 -0.590103 1.0647
                  CHANNELS 3 Zrotation Xrotation Yrotation
                  End Site
                  {
                    OFFSET -2.48547 -0.328903 0.83742
                  }
                }
              }
              JOINT rRing1
              {
                OFFSET -8.82822 0.546677 1.51678
                CHANNELS 3 Zrotation Xrotation Yrotation
                JOINT rRing2
                {
                  OFFSET -2.60934 -0.819778 -0.0198488
                  CHANNELS 3 Zrotation Xrotation Yrotation
                  End Site
                  {
                    OFFSET -2.33842 -0.294052 0.168128
                  }
                }
              }
              JOINT rPinky1
              {
                OFFSET -8.27202 -0.0477905 -0.4584
                CHANNELS 3 Zrotation Xrotation Yrotation
                JOINT rPinky2
                {
                  OFFSET -1.82734 -0.647385 -0.700984
                  CHANNELS 3 Zrotation Xrotation Yrotation
                  End Site
                  {
                    OFFSET -1.69225 -0.51767 -0.607171
                  }
                }
              }
            }
          }
        }
      }
      JOINT lCollar
      {
        OFFSET 2.68224 19.2634 -4.8768
        CHANNELS 3 Zrotation Xrotation Yrotation
        JOINT lShldr
        {
          OFFSET 8.77824 -1.95073 1.46304
          CHANNELS 3 Zrotation Xrotation Yrotation
          JOINT lForeArm
          {
            OFFSET 28.1742 -1.7115 0.48768
            CHANNELS 3 Zrotation Xrotation Yrotation
            JOINT lHand
            {
              OFFSET 22.5879 0.773209 7.07136
              CHANNELS 3 Zrotation Xrotation Yrotation
              JOINT lThumb1
              {
                OFFSET 1.2192 -0.487915 3.41376
                CHANNELS 3 Zrotation Xrotation Yrotation
                JOINT lThumb2
                {
                  OFFSET 3.37035 -0.52449 3.41376
                  CHANNELS 3 Zrotation Xrotation Yrotation
                  End Site
                  {
                    OFFSET 1.78271 -1.18214 1.43049
                  }
                }
              }
              JOINT lIndex1
              {
                OFFSET 7.75947 0.938293 5.60832
                CHANNELS 3 Zrotation Xrotation Yrotation
                JOINT lIndex2
                {
                  OFFSET 2.54057 -0.884171 1.56538
                  CHANNELS 3 Zrotation Xrotation Yrotation
                  End Site
                  {
                    OFFSET 1.62519 -0.234802 1.16502
                  }
                }
              }
              JOINT lMid1
              {
                OFFSET 8.24714 1.18213 3.41376
                CHANNELS 3 Zrotation Xrotation Yrotation
                JOINT lMid2
                {
                  OFFSET 3.10165 -0.590103 1.0647
                  CHANNELS 3 Zrotation Xrotation Yrotation
                  End Site
                  {
                    OFFSET 2.48547 -0.328903 0.83742
                  }
                }
              }
              JOINT lRing1
              {
                OFFSET 8.82822 0.546677 1.51678
                CHANNELS 3 Zrotation Xrotation Yrotation
                JOINT lRing2
                {
                  OFFSET 2.60934 -0.819778 -0.0198488
                  CHANNELS 3 Zrotation Xrotation Yrotation
                  End Site
                  {
                    OFFSET 2.33842 -0.294052 0.168128
                  }
                }
              }
              JOINT lPinky1
              {
                OFFSET 8.27202 -0.0477905 -0.4584
                CHANNELS 3 Zrotation Xrotation Yrotation
                JOINT lPinky2
                {
                  OFFSET 1.82734 -0.647385 -0.700984
                  CHANNELS 3 Zrotation Xrotation Yrotation
                  End Site
                  {
                    OFFSET 1.69225 -0.51767 -0.607171
                  }
                }
              }
            }
          }
        }
      }
    }
  }
  JOINT rButtock
  {
    OFFSET -8.77824 4.35084 1.2192
    CHANNELS 3 Zrotation Xrotation Yrotation
    JOINT rThigh
    {
      OFFSET 0 -1.70687 -2.19456
      CHANNELS 3 Zrotation Xrotation Yrotation
      JOINT rShin
      {
        OFFSET 0 -36.8199 0.73152
        CHANNELS 3 Zrotation Xrotation Yrotation
        JOINT rFoot
        {
          OFFSET 0.73152 -45.1104 -5.12064
          CHANNELS 3 Zrotation Xrotation Yrotation
          End Site
          {
            OFFSET -1.1221 -3.69964 12.103
          }
        }
      }
    }
  }
  JOINT lButtock
  {
    OFFSET 8.77824 4.35084 1.2192
    CHANNELS 3 Zrotation Xrotation Yrotation
    JOINT lThigh
    {
      OFFSET 0 -1.70687 -2.19456
      CHANNELS 3 Zrotation Xrotation Yrotation
      JOINT lShin
      {
        OFFSET 0 -36.8199 0.73152
        CHANNELS 3 Zrotation Xrotation Yrotation
        JOINT lFoot
        {
          OFFSET -0.73152 -45.1104 -5.12064
          CHANNELS 3 Zrotation Xrotation Yrotation
          End Site
          {
            OFFSET 1.1221 -3.69964 12.103
          }
        }
      }
    }
  }
}
MOTION
Frames:	4
Frame Time:	0.00833333
33.8799 83.4871 -20.3838 0.0 0.0 0.0 -2.5996 0.000365881 -0.0702737 -0.716693 0.0122896 -0.124028 -3.98965e-14 7.95139e-16 -3.9757e-16 -1.20001e-13 9.54166e-15 -1.14922e-15 -0.0 0.0 0.0 -0.0 0.0 0.0 -1.96319e-14 1.94126e-18 -4.96962e-17 -4.18393e-13 -2.04997e-16 -4.37326e-15 -7.20351e-12 2.16874e-12 3.18055e-15 -8.26957e-11 -2.17518e-12 -9.38264e-13 -1.95024e-10 -1.12842e-14 -1.98149e-12 -3.36812e-10 -1.27222e-14 -3.43977e-12 -1.95016e-10 -1.07344e-14 -1.99739e-12 7.73091 5.47488 0.417314 -1.95024e-10 -1.13307e-14 -1.98785e-12 2.90554 0.965183 0.102902 -1.95012e-10 -1.10325e-14 -1.99659e-12 10.2786 0.731801 0.0259123 -1.95029e-10 -9.1441e-15 -1.99421e-12 2.22167 -0.733487 -0.20892 -1.98281e-14 3.10601e-18 -3.47873e-16 -4.21118e-13 2.98177e-16 -5.76476e-15 -7.24779e-12 -2.15721e-12 -3.18055e-15 -8.26843e-11 2.16499e-12 -9.12819e-13 -1.95084e-10 1.2937e-14 -1.99421e-12 -3.36885e-10 2.22639e-14 -3.42148e-12 -1.95089e-10 1.31198e-14 -1.98785e-12 -7.73091 5.47488 -0.417314 -1.95084e-10 1.25234e-14 -1.99103e-12 -2.90554 0.965183 -0.102902 -1.9509e-10 1.32192e-14 -1.98546e-12 -10.2786 0.731801 -0.0259123 -1.95077e-10 1.51076e-14 -1.99103e-12 -2.22167 -0.733487 0.20892 -2.03217e-16 0.0 -3.88251e-19 -1.50141 -1.93106 0.00777804 -0.00871757 -2.07863 -0.0716792 -0.472071 3.99921 0.134423 2.03217e-16 0.0 3.88251e-19 -2.45102 -8.43839 0.261252 -0.00685304 9.70796 -0.175561 0.52384 -1.27996 -0.0328991
27.6285 82.6675 -27.8131 -112.458 -86.5838 112.565 -1.79552 -0.429037 -0.413091 -1.11789 0.79867 -0.255059 0.400284 2.48054 -0.0976016 0.920741 -7.34906 -0.0409624 -0.0 0.0 0.0 -0.0 0.0 0.0 -2.36465e-14 2.83741e-13 8.57725e-15 10.2466 1.20417 3.74287 -4.33991 -1.99635 6.7519 0.00309969 1.24155 0.174343 1.86828e-10 5.05411e-11 3.07451e-10 3.24975e-10 9.26352e-11 5.29952e-10 1.86836e-10 5.05417e-11 3.07439e-10 7.73091 5.47488 0.417314 1.86828e-10 5.05402e-11 3.07446e-10 2.90554 0.965183 0.102902 1.86839e-10 5.05412e-11 3.0744e-10 10.2786 0.731801 0.0259123 1.86822e-10 5.05419e-11 3.07443e-10 2.22167 -0.733487 -0.20892 -2.3797e-14 2.83742e-13 8.27791e-15 -9.53726 5.09898 -2.22602 4.50418 -2.10648 -6.96891 -0.0750221 -6.08284 0.837592 -3.94964e-10 3.8565e-10 2.37385e-11 -6.83917e-10 6.63497e-10 3.7636e-11 -3.94969e-10 3.8565e-10 2.37451e-11 -7.73091 5.47488 -0.417314 -3.94965e-10 3.85649e-10 2.37418e-11 -2.90554 0.965183 -0.102902 -3.94972e-10 3.85649e-10 2.37449e-11 -10.2786 0.731801 -0.0259123 -3.94958e-10 3.85651e-10 2.374e-11 -2.22167 -0.733487 0.20892 -2.03217e-16 0.0 -3.88251e-19 -0.81076 -3.77324 0.750779 0.0226777 5.98408 0.113498 -0.895931 -2.15937 -3.24949 2.03217e-16 0.0 3.88251e-19 -0.303784 -7.33162 1.33531 -0.0207889 12.8812 -0.225485 0.819819 -5.34873 3.28145
27.6232 82.6705 -27.8183 -112.8 -86.5633 112.88 -0.949645 -0.882811 -0.775227 -1.53784 1.63161 -0.393646 0.833829 5.10501 -0.200439 1.87984 -15.1274 -0.0850825 -0.0 0.0 0.0 -0.0 0.0 0.0 -2.69198e-14 5.75548e-13 1.85491e-14 20.9741 2.52102 7.69899 -8.4237 -4.01701 13.9214 -0.00188926 2.56869 0.360985 6.0385e-10 1.12859e-10 6.45829e-10 1.04772e-09 2.06117e-10 1.11323e-09 6.03858e-10 1.12859e-10 6.4582e-10 7.73091 5.47488 0.417314 6.03849e-10 1.12857e-10 6.45825e-10 2.90554 0.965183 0.102902 6.0386e-10 1.12859e-10 6.45822e-10 10.2786 0.731801 0.0259123 6.03842e-10 1.12858e-10 6.45825e-10 2.22167 -0.733487 -0.20892 -2.7021e-14 5.75548e-13 1.82478e-14 -19.2449 10.5169 -4.64038 8.71301 -4.22947 -14.3661 0.0432399 -12.4975 1.75343 -6.04017e-10 7.8871e-10 4.98029e-11 -1.04693e-09 1.35712e-09 7.9151e-11 -6.04022e-10 7.88708e-10 4.98099e-11 -7.73091 5.47488 -0.417314 -6.04018e-10 7.88707e-10 4.98063e-11 -2.90554 0.965183 -0.102902 -6.04026e-10 7.88706e-10 4.98066e-11 -10.2786 0.731801 -0.0259123 -6.04012e-10 7.88708e-10 4.98025e-11 -2.22167 -0.733487 0.20892 -2.03217e-16 0.0 -3.88251e-19 -0.0282764 -5.72021 1.54046 -0.00222447 14.5071 0.318063 -2.14015 -8.6152 -6.89941 2.03217e-16 0.0 3.88251e-19 1.92083 -6.16037 2.46515 -0.0292341 16.2349 -0.280433 1.6502 -9.60015 6.85321
27.6176 82.6728 -27.814 -113.025 -86.583 113.078 -0.202769 -1.28764 -1.09897 -1.90948 2.37136 -0.51749 1.22639 7.44155 -0.295015 2.72858 -22.0471 -0.131493 -0.0 0.0 0.0 -0.0 0.0 0.0 -3.16756e-14 8.5122e-13 2.58311e-14 30.2703 3.55087 11.248 -11.6351 -5.65708 20.3468 -0.0134087 3.72452 0.524014 9.50532e-10 1.51646e-10 9.26316e-10 1.64855e-09 2.77931e-10 1.59673e-09 9.50541e-10 1.51647e-10 9.26311e-10 7.73091 5.47488 0.417314 9.50531e-10 1.51643e-10 9.26313e-10 2.90554 0.965183 0.102902 9.50541e-10 1.51646e-10 9.26312e-10 10.2786 0.731801 0.0259123 9.50523e-10 1.51644e-10 9.26317e-10 2.22167 -0.733487 -0.20892 -3.17349e-14 8.5122e-13 2.55295e-14 -27.3896 15.2029 -6.894 12.0063 -5.94629 -21.0109 0.332273 -18.2325 2.63079 -7.94725e-10 1.15693e-09 7.52041e-11 -1.37798e-09 1.99045e-09 1.19751e-10 -7.9473e-10 1.15692e-09 7.52111e-11 -7.73091 5.47488 -0.417314 -7.94726e-10 1.15692e-09 7.52074e-11 -2.90554 0.965183 -0.102902 -7.94735e-10 1.15692e-09 7.52055e-11 -10.2786 0.731801 -0.0259123 -7.9472e-10 1.15692e-09 7.5202e-11 -2.22167 -0.733487 0.20892 -2.03217e-16 0.0 -3.88251e-19 0.714957 -7.45288 2.25093 -0.0800049 22.1087 0.520149 -3.9661 -14.2618 -10.3315 2.03217e-16 0.0 3.88251e-19 3.8658 -5.11448 3.47015 -0.030969 19.2276 -0.331849 2.84979 -13.3089 10.1424
